<svg xmlns="http://www.w3.org/2000/svg" viewBox="0 0 500 500" width="100%" height="100%">
    <defs>
        <clipPath id="clip-tl">
            <circle cx="169" cy="198" r="90" />
        </clipPath>
        <clipPath id="clip-br">
            <circle cx="331" cy="302" r="90" />
        </clipPath>

        <mask id="cut-cyan">
            <rect x="0" y="0" width="500" height="500" fill="white" />
            <circle cx="287" cy="193" r="118" stroke="black" stroke-width="80" fill="none" clip-path="url(#clip-tl)" />
        </mask>

        <mask id="cut-orange">
            <rect x="0" y="0" width="500" height="500" fill="white" />
            <circle cx="213" cy="307" r="118" stroke="black" stroke-width="80" fill="none" clip-path="url(#clip-br)" />
        </mask>
    </defs>

    <g mask="url(#cut-cyan)">
        <circle cx="213" cy="307" r="118" stroke="#40BCD8" stroke-width="56" fill="none" />
    </g>
    <circle cx="213" cy="307" r="38" fill="#40BCD8" />

    <g mask="url(#cut-orange)">
        <circle cx="287" cy="193" r="118" stroke="#FDB833" stroke-width="56" fill="none" />
    </g>
    <circle cx="287" cy="193" r="38" fill="#FDB833" />

    <path fill="#FDB833" d="M 376 392 
             C 376 366, 394 352, 412 352 
             C 434 352, 448 368, 448 390 
             C 448 402, 440 412, 432 420 
             L 412 440 
             L 448 440 L 448 454 L 372 454 
             L 416 410 
             C 426 400, 430 394, 430 388 
             C 430 378, 422 370, 412 370 
             C 402 370, 394 378, 394 392 Z" />
</svg>
